<?xml version="1.0" encoding="UTF-8" standalone="no"?>
<!DOCTYPE svg PUBLIC "-//W3C//DTD SVG 1.1//EN" "http://www.w3.org/Graphics/SVG/1.1/DTD/svg11.dtd">
<svg width="100%" height="100%" viewBox="0 0 1080 1080" version="1.1" xmlns="http://www.w3.org/2000/svg" xmlns:xlink="http://www.w3.org/1999/xlink" xml:space="preserve" xmlns:serif="http://www.serif.com/" style="fill-rule:evenodd;clip-rule:evenodd;stroke-linejoin:round;stroke-miterlimit:2;">
    <g transform="matrix(1,0,0,1,-824.509,-408.242)">
        <g transform="matrix(1.20006e-15,-1,1,1.20006e-15,425.237,2297.14)">
            <circle cx="1348.9" cy="939.271" r="506.729" style="fill:white;fill-opacity:0;"/>
        </g>
        <g transform="matrix(6.12323e-17,1,-1,6.12323e-17,2303.78,-400.659)">
            <path d="M1512.01,789.051C1455.56,630.101 1322.9,510.171 1161.73,468.306C1219.67,445.221 1282.82,432.542 1348.9,432.542C1628.57,432.542 1855.63,659.6 1855.63,939.271C1855.63,1007.29 1842.2,1072.19 1817.82,1131.46C1818.64,1122.32 1819.05,1113.08 1819.05,1103.75C1819.05,932.597 1682.16,793.163 1512.01,789.051Z" style="fill:rgb(71,71,71);"/>
        </g>
        <g transform="matrix(6.12323e-17,1,-1,6.12323e-17,2303.78,-400.659)">
            <path d="M1514.13,1418.38C1462.32,1436.29 1406.74,1446 1348.9,1446C1069.23,1446 842.172,1218.94 842.172,939.271C842.172,796.163 901.624,666.832 997.174,574.669C1170.42,574.522 1327.08,663.035 1418.92,800.685C1286.58,837.915 1189.45,959.579 1189.45,1103.75C1189.45,1277.49 1330.51,1418.55 1504.25,1418.55C1507.55,1418.55 1510.84,1418.5 1514.13,1418.38Z" style="fill:rgb(71,71,71);"/>
        </g>
        <g transform="matrix(6.12323e-17,1,-1,6.12323e-17,1821.1,706.305)">
            <path d="M426.428,565.5C433.918,523.634 436.187,480.176 432.603,435.9C519.797,452.404 585.811,529.087 585.811,621.067C585.811,725.117 501.336,809.592 397.286,809.592C293.236,809.592 208.761,725.117 208.761,621.067C208.761,526.444 278.623,448.01 369.544,434.595C381.945,470.795 390.381,508.989 394.321,548.706L395.113,558.345C361.469,559.474 334.509,587.147 334.509,621.067C334.509,653.154 358.634,679.651 389.726,683.374L389.584,684.292L389.968,683.405C392.365,683.701 394.809,683.844 397.286,683.844C431.934,683.844 460.063,655.715 460.063,621.067C460.063,596.942 446.425,575.977 426.428,565.5Z" style="fill:rgb(0,186,255);"/>
        </g>
    </g>
</svg>
